<?xml version="1.0" standalone="no"?>
<!DOCTYPE svg PUBLIC "-//W3C//DTD SVG 20010904//EN"
 "http://www.w3.org/TR/2001/REC-SVG-20010904/DTD/svg10.dtd">
<svg version="1.0" xmlns="http://www.w3.org/2000/svg"
 width="121.000000pt" height="34.000000pt" viewBox="0 0 121.000000 34.000000"
 preserveAspectRatio="xMidYMid meet">

<g transform="translate(0.000000,34.000000) scale(0.100000,-0.100000)"
fill="#000000" stroke="none">
<path d="M1027 264 c-14 -15 -6 -34 14 -34 14 0 19 5 17 17 -3 18 -20 27 -31
17z"/>
<path d="M210 190 c0 -73 17 -98 22 -32 2 29 7 37 23 37 16 0 21 -8 23 -37 4
-47 22 -50 22 -4 0 41 -22 66 -50 59 -16 -4 -20 0 -20 21 0 14 -4 26 -10 26
-6 0 -10 -30 -10 -70z"/>
<path d="M950 235 c0 -19 -5 -25 -23 -25 -29 0 -47 -18 -47 -45 0 -30 29 -52
68 -52 l32 0 0 74 c0 58 -3 73 -15 73 -9 0 -15 -9 -15 -25z m0 -70 c0 -25 -23
-35 -35 -15 -10 16 2 40 20 40 9 0 15 -9 15 -25z"/>
<path d="M330 239 c0 -5 5 -7 10 -4 6 3 10 8 10 11 0 2 -4 4 -10 4 -5 0 -10
-5 -10 -11z"/>
<path d="M372 220 c-7 -12 -8 -20 -2 -20 5 0 10 -18 10 -40 0 -39 21 -64 38
-45 4 4 1 10 -5 12 -7 3 -13 20 -13 38 0 18 6 36 13 38 10 4 10 6 0 6 -7 1
-13 8 -13 16 0 21 -13 19 -28 -5z"/>
<path d="M1105 220 c-3 -5 -2 -17 3 -26 8 -14 10 -14 21 0 13 15 8 36 -9 36
-5 0 -12 -4 -15 -10z"/>
<path d="M458 208 c-9 -7 -19 -23 -23 -35 -10 -36 51 -84 70 -54 3 5 -7 11
-22 13 -42 5 -41 28 1 28 40 0 47 17 20 44 -19 19 -25 20 -46 4z m42 -23 c0
-9 -9 -15 -25 -15 -24 0 -32 10 -18 23 12 13 43 7 43 -8z"/>
<path d="M60 204 c0 -19 24 -84 32 -84 4 0 14 15 21 32 l13 33 12 -33 c6 -17
15 -32 20 -32 8 0 32 64 32 84 0 19 -18 -8 -25 -36 l-7 -33 -12 35 c-7 19 -16
35 -21 35 -5 0 -14 -16 -20 -35 l-12 -35 -8 38 c-4 20 -11 37 -16 37 -5 0 -9
-3 -9 -6z"/>
<path d="M333 165 c0 -27 2 -38 4 -22 2 15 2 37 0 50 -2 12 -4 0 -4 -28z"/>
<path d="M540 140 c0 -56 3 -70 15 -70 9 0 15 9 15 24 0 19 4 22 25 19 19 -4
27 0 36 20 6 14 9 37 5 51 -6 23 -11 26 -51 26 l-45 0 0 -70z m68 22 c3 -17
-2 -22 -17 -22 -14 0 -21 6 -21 18 0 38 33 41 38 4z"/>
<path d="M665 200 c4 -6 13 -9 21 -6 7 3 16 1 19 -3 2 -5 -7 -12 -21 -15 -20
-5 -25 -12 -22 -34 3 -24 8 -27 41 -29 l38 -1 -3 46 c-3 47 -3 47 -42 50 -26
2 -36 0 -31 -8z m45 -55 c0 -8 -4 -15 -9 -15 -13 0 -22 16 -14 24 11 11 23 6
23 -9z"/>
<path d="M770 161 c0 -39 4 -51 15 -51 11 0 15 11 15 40 0 29 4 40 15 40 11 0
15 -11 15 -40 0 -30 4 -40 16 -40 12 0 14 10 12 48 l-3 47 -42 3 -43 3 0 -50z"/>
<path d="M1010 201 c0 -6 12 -11 28 -11 l27 -1 -32 -14 c-54 -23 -38 -63 25
-62 33 0 33 0 30 46 -3 45 -4 46 -40 49 -22 2 -38 -1 -38 -7z m50 -49 c0 -13
-12 -22 -22 -16 -10 6 -1 24 13 24 5 0 9 -4 9 -8z"/>
</g>
</svg>
